<svg xmlns="http://www.w3.org/2000/svg" viewBox="0 0 1007.69 1031.5"><defs><style>.cls-1{fill:#fb8b8b;}.cls-2{fill:#f95959;}</style></defs><title>Menu</title><g id="Layer_2" data-name="Layer 2"><g id="Logo"><polygon class="cls-1" points="502.22 0 502.22 168.85 861.57 377.75 1006.61 294.4 502.22 0"/><polygon class="cls-1" points="4.33 287.91 0 455.68 506.55 750.08 508.71 582.32 4.33 287.91"/><polygon class="cls-2" points="507.63 861.57 505.47 1030.42 1007.69 742.51 1007.69 575.82 507.63 861.57"/><polygon class="cls-1" points="502.22 281.42 502.22 450.27 861.57 659.16 1006.61 575.82 502.22 281.42"/><polygon class="cls-1" points="4.33 569.33 0 737.1 506.55 1031.5 508.71 863.73 4.33 569.33"/><polygon class="cls-2" points="507.63 580.15 505.47 749 1007.69 461.09 1007.69 294.4 507.63 580.15"/><polygon class="cls-2" points="3.25 569.33 1.08 738.18 503.3 450.27 503.3 283.58 3.25 569.33"/><polygon class="cls-2" points="3.25 287.91 1.08 456.76 503.3 168.85 503.3 2.17 3.25 287.91"/></g></g></svg>